<?xml version="1.0" encoding="UTF-8"?>
<svg id="Layer_1" xmlns="http://www.w3.org/2000/svg" version="1.1" viewBox="0 0 452.4 499">
  <!-- Generator: Adobe Illustrator 29.2.1, SVG Export Plug-In . SVG Version: 2.1.0 Build 116)  -->
  <defs>
    <style>
      .st0 {
        fill: #ffc223;
      }
    </style>
  </defs>
  <path class="st0" d="M319.3,227.3c10.6-2.1,104.7-44.3,113.1-49,19.2-10.8,25.7-34.8,14.7-53.6-11.1-18.7-35.6-25.2-54.7-14.3-8.4,4.7-92.7,63.3-99.9,71.3-8.3,9.1-9.7,22.1-3.6,32.5,6.1,10.4,18.3,15.7,30.5,13.2Z"/>
  <path class="st0" d="M432.4,320.7c-8.4-4.7-102.4-46.9-113.1-49-12.2-2.5-24.4,2.8-30.5,13.2-6.1,10.4-4.7,23.4,3.6,32.5,7.2,7.9,91.6,66.5,99.9,71.3,19.2,10.8,43.7,4.4,54.7-14.3,11.1-18.8,4.5-42.7-14.7-53.6Z"/>
  <path class="st0" d="M226.2,320.2c-12.2,0-23,7.7-26.9,19.3-3.4,10.1-13.1,110.8-13.1,120.3,0,21.6,17.9,39.2,40.1,39.2s40.1-17.5,40.1-39.2-9.7-110.3-13.1-120.3c-3.9-11.6-14.7-19.3-26.9-19.3Z"/>
  <path class="st0" d="M133.1,271.7c-10.6,2.1-104.7,44.3-113.1,49-19.2,10.8-25.7,34.8-14.7,53.6,11.1,18.8,35.6,25.2,54.7,14.3,8.4-4.7,92.7-63.3,99.9-71.3,8.3-9.1,9.7-22.1,3.6-32.5-6.1-10.4-18.3-15.7-30.5-13.2Z"/>
  <path class="st0" d="M60.1,110.4c-19.2-10.8-43.7-4.4-54.7,14.3-11.1,18.8-4.5,42.7,14.7,53.6,8.4,4.7,102.4,46.9,113.1,49,12.2,2.5,24.4-2.8,30.5-13.2,6.1-10.4,4.7-23.4-3.6-32.5-7.2-7.9-91.5-66.5-99.9-71.3Z"/>
  <path class="st0" d="M226.2,0c-22.1,0-40.1,17.5-40.1,39.2s9.7,110.3,13.1,120.3c3.9,11.6,14.7,19.3,26.9,19.3s23-7.7,26.9-19.3c3.4-10.1,13.1-110.8,13.1-120.3,0-21.6-17.9-39.2-40.1-39.2Z"/>
</svg>